<svg xmlns="http://www.w3.org/2000/svg" viewBox="0 0 4875 114.7"><path fill="#f8f8f8" d="M2440 73s-7.2-8.9-11-9.1c-3.8-.3-7.2-.4-8.5-.2-1.3.3-6.8-3.1-8.3-3s-4.8.7-7.4 1.5c-2.7.8-5.3 2.1-6.5 2.4-1.1.3-6.8 0-8.1-.5-1.3-.4-6.6-2.9-8.1-3.4s.6-2.7-6.2-2.1c-6.8.7-11-.1-12.9 1.2s-5.9 2.3-10.5 2.6c-4.6.2-10.7 2.3-9.3-.6 1.4-2.8 3.2-7.5 4.3-8.7 1.2-1.2-2.5-8.9-9.5-10.1-7-1.1-12.5-2.6-15.5-2.6-3-.1-9.5 1.4-12 2.4-2.5 1.1-16.4 2.8-18.8-1-2.4-3.7-2.8-10.5-9.9-10.4-7 .1-14.8-.5-17.4.1-2.7.6-6.2-1.2-14.8-1.4-8.5-.2-15.5-2-17-2.5-1.5-.4-3.7-4.7-9.4-3.2-5.7 1.4-9.8-1.6-12.7-2.2-2.8-.6-14-3.6-17.7-6.1s-7.8-6.6-10.9-5.9c-3 .7-5.5 1.1-7 1.3s-12.2-4.8-13.4-5.1c-1.1-.3-14.7-4.1-21.2-4.6-6.4-.4-12.5-2.5-16.3-1.6-3.8.8-16.3 2-19.6 3.8s-10.7 2.7-12.8 3.6c-2.1 1-11.7-2.8-12.5 0-.8 2.7-9.7 3.7-15.8 2.1-6-1.6-10.5-4.2-14.7-2.9-4.2 1.2-13.3 1-21.1 3.2s-12.6 4.8-18.9 4.3c-6.2-.4-16.7 3.6-21.1 4.1s-11.2 2.1-14.9 3.8c-3.6 1.7-13.7 5-18.9 5.2-5.1.1-11.8 2.3-11.7 5.7.1 3.4-4.4 3.3-9.2 2.9-4.7-.4-10.4-.9-13.1.9-2.7 1.8-8.2 2.4-8.6 4.2s-11.8 3.4-16.3 1c-4.5-2.3-7.1-4-12.6-3.7s-19.3-3.5-24-4.2-11.7-1.3-16.7.7c-5 2.1-18.4 2.1-20.9 3.4-2.5 1.3-3.5 3.7-5.2 4.9s-6.8 1.4-12.9-.2c-6-1.6-13.8-3.6-19.1-2.1-5.3 1.5-12.7.8-18.6.9-5.9.1-6.1 2.6-7.8 3.2-1.7.6-17.8.5-17.8.5s-5.2 4.9-11.5 6.9-8.4 4.5-13.6 5.2c-5.1.6-20.5.2-27.7.3s-20 2.8-20 2.8l-4.6 3.6s-11.9-1-21-1.7-14.4-.1-16.7 2.4c-2.3 2.5-23.6 6.6-25.9 7.2s-18.1 4-18.1 4-23-8.5-28.8-8.6c-5.9-.1-20.9 2-20.9 2l-15.9 7.6-18.8-.3s-18.2 1.1-23.3-.4c-5.1-1.5-11.1 3.1-12.8 4.1-1.7 1.1-14.5 4-14.5 4l-32.3-6.2-19-7.4-13.2 8.4s-15.5 7.8-22.1 6.6c-6.6-1.1-13.3-.1-15.9 1-2.7 1.2-22.6 4-22.6 4s-14.6-8.2-15.2-8.3c-.6-.1-13 5.1-13 5.1s-17.9 2.9-25.2 1.1c-7.4-1.9-25.3-5.3-27.4-4.9s-26.7.7-27.3.5c-.6-.2-13.6-4.9-13.6-4.9l-15.4 3.1s-25.7-4.9-31.7-6.4-19.4-4.8-20-4.9c-.6 0-26.9-1.1-27.7-1.2-.8-.1-18.4.8-18.4.8l-14 .3-32.8 2.2-15.9-1.6-16.8 8.7-17.5 3.6-21.3 2.2-13.8.1-23-5.1-29.4 2.5-21.4.4-9 4-39.2-2.2-13.8-4.5-10.1 3.4-11 .5-9 4.3-17.7-5.2h-43l-12.2-4.7-15.8.3s-2.9 1.8-4.6 1.2c-1.7-.5-20-2.8-20-2.8L655 82l-13.8 6.8s-45.5 1.1-46.1 1.1-12.8 6.9-12.8 6.9l-12.4-5.1s-28.2-3.5-28.9-3.5c-.8 0-10.5-5.1-11.1-5.2s-19.1-.1-19.1-.1l-28.4-3.5-5.6 4.6-23 3.1-11.8-5.5-17.8-2.7-13.8 2.6-11.8.2-18-.2-9.6 6.1-30.4-8.1-15.1-4.2-11.8 2.5-23 5.6-12.4 2.3-39.2-1.4-7.1-3.5-29.6-.1-11.8 1.5-19.5-2.4-20-3.1-36.2.4-6.3 3.3-32.8-13.1-13.6-.4-33.9-.2-17.5.7L0 76.3v38.4l2440-.3V73z"/><path fill="#f8f8f8" d="M4875 73s-7.2-8.9-11-9.1c-3.8-.3-7.2-.4-8.5-.2-1.3.3-6.8-3.1-8.3-3s-4.8.7-7.4 1.5c-2.7.8-5.3 2.1-6.5 2.4-1.1.3-6.8 0-8.1-.5-1.3-.4-6.6-2.9-8.1-3.4s.6-2.7-6.2-2.1c-6.8.7-11-.1-12.9 1.2s-5.9 2.3-10.5 2.6c-4.6.2-10.7 2.3-9.3-.6 1.4-2.8 3.2-7.5 4.3-8.7 1.2-1.2-2.5-8.9-9.5-10.1-7-1.1-12.5-2.6-15.5-2.6-3-.1-9.5 1.4-12 2.4-2.5 1.1-16.4 2.8-18.8-1-2.4-3.7-2.8-10.5-9.9-10.4-7 .1-14.8-.5-17.4.1-2.7.6-6.2-1.2-14.8-1.4-8.5-.2-15.5-2-17-2.5-1.5-.4-3.7-4.7-9.4-3.2-5.7 1.4-9.8-1.6-12.7-2.2-2.8-.6-14-3.6-17.7-6.1s-7.8-6.6-10.9-5.9c-3 .7-5.5 1.1-7 1.3s-12.2-4.8-13.4-5.1c-1.1-.3-14.7-4.1-21.2-4.6-6.4-.4-12.5-2.5-16.3-1.6-3.8.8-16.3 2-19.6 3.8s-10.7 2.7-12.8 3.6c-2.1 1-11.7-2.8-12.5 0-.8 2.7-9.7 3.7-15.8 2.1-6-1.6-10.5-4.2-14.7-2.9-4.2 1.2-13.3 1-21.1 3.2-7.8 2.2-12.6 4.8-18.9 4.3-6.2-.4-16.7 3.6-21.1 4.1s-11.2 2.1-14.9 3.8c-3.6 1.7-13.7 5-18.9 5.2-5.1.1-11.8 2.3-11.7 5.7s-4.4 3.3-9.2 2.9c-4.7-.4-10.4-.9-13.1.9-2.7 1.8-8.2 2.4-8.6 4.2-.4 1.8-11.8 3.4-16.3 1-4.5-2.3-7.1-4-12.6-3.7s-19.3-3.5-24-4.2c-4.7-.7-11.7-1.3-16.7.7-5 2.1-18.4 2.1-20.9 3.4-2.5 1.3-3.5 3.7-5.2 4.9-1.7 1.2-6.8 1.4-12.9-.2-6-1.6-13.8-3.6-19.1-2.1s-12.7.8-18.6.9c-5.9.1-6.1 2.6-7.8 3.2-1.7.6-17.8.5-17.8.5s-5.2 4.9-11.5 6.9-8.4 4.5-13.6 5.2c-5.1.6-20.5.2-27.7.3-7.2.1-20 2.8-20 2.8l-4.6 3.6s-11.9-1-21-1.7-14.4-.1-16.7 2.4c-2.3 2.5-23.6 6.6-25.9 7.2-2.3.6-18.1 4-18.1 4s-23-8.5-28.8-8.6c-5.9-.1-20.9 2-20.9 2l-15.9 7.6-18.8-.3s-18.2 1.1-23.3-.4-11.1 3.1-12.8 4.1c-1.7 1.1-14.5 4-14.5 4l-32.3-6.2-19-7.4-13.2 8.4s-15.5 7.8-22.1 6.6c-6.6-1.1-13.3-.1-15.9 1-2.7 1.2-22.6 4-22.6 4s-14.6-8.2-15.2-8.3c-.6-.1-13 5.1-13 5.1s-17.9 2.9-25.2 1.1c-7.4-1.9-25.3-5.3-27.4-4.9s-26.7.7-27.3.5-13.6-4.9-13.6-4.9l-15.4 3.1s-25.7-4.9-31.7-6.4-19.4-4.8-20-4.9c-.6 0-26.9-1.1-27.7-1.2-.8-.1-18.4.8-18.4.8l-14 .3-32.8 2.2-15.9-1.6-16.8 8.7-17.5 3.6-21.3 2.2-13.8.1-23-5.1-29.4 2.5-21.4.4-9 4-39.2-2.2-13.8-4.5-10.1 3.4-11 .5-9 4.3-17.7-5.2h-43l-12.2-4.7-15.8.3s-2.9 1.8-4.6 1.2c-1.7-.5-20-2.8-20-2.8L3090 82l-13.8 6.8s-45.5 1.1-46.1 1.1c-.6 0-12.8 6.9-12.8 6.9l-12.4-5.1s-28.2-3.5-28.9-3.5c-.8 0-10.5-5.1-11.1-5.2-.6-.1-19.1-.1-19.1-.1l-28.4-3.5-5.6 4.6-23 3.1-11.8-5.5-17.8-2.7-13.8 2.6-11.8.2-18-.2-9.6 6.1-30.4-8.1-15.1-4.2-11.8 2.5-23 5.6-12.4 2.3-39.2-1.4-7.1-3.5-29.6-.1-11.8 1.5-19.5-2.4-20-3.1-36.2.4-6.3 3.3-32.8-13.1-13.6-.4-33.9-.2-17.5.7-10.8 8.9v38.4l2440-.3V73z"/></svg>